<?xml version="1.0" encoding="UTF-8"?><svg xmlns="http://www.w3.org/2000/svg" xmlns:xlink="http://www.w3.org/1999/xlink" height="256.0" preserveAspectRatio="xMidYMid" version="1.1" viewBox="0.0 -0.0 256.0 256.0" width="256.0" zoomAndPan="magnify">
 <defs>
  <linearGradient id="linearGradient-1" x1="50%" x2="50%" xlink:actuate="onLoad" xlink:show="other" xlink:type="simple" xmlns:xlink="http://www.w3.org/1999/xlink" y2="100%">
   <stop offset="0" stop-color="#17C9FB"/>
   <stop offset="1" stop-color="#1A74E8"/>
  </linearGradient>
 </defs>
 <g>
  <path d="m56.064 0h143.88c30.96-6.5708e-15 56.06 25.101 56.06 56.064v143.88c0 30.96-25.1 56.06-56.06 56.06h-143.88c-30.959 0-56.06-25.1-56.06-56.06v-143.88c0-30.959 25.101-56.06 56.064-56.06z" fill="url(#linearGradient-1)"/>
  <path d="m82.042 185.81l0.024 0.01-8.753 15.16c-3.195 5.53-10.271 7.43-15.805 4.23-5.533-3.19-7.43-10.27-4.235-15.8l6.448-11.17 0.619-1.07c1.105-1.59 3.832-4.33 9.287-3.82 0 0 12.837 1.4 13.766 8.07 0 0 0.126 2.19-1.351 4.39zm124.15-38.72h-27.3c-1.86-0.13-2.67-0.79-2.99-1.17l-0.02-0.04-29.22-50.606-0.03 0.025-1.76-2.512c-2.87-4.392-7.43 6.84-7.43 6.84-5.44 12.513 0.77 26.743 2.94 31.043l40.58 70.29c3.2 5.54 10.27 7.43 15.81 4.24 5.53-3.2 7.43-10.27 4.23-15.81l-10.14-17.57c-0.2-0.43-0.54-1.59 1.54-1.59h13.79c6.38 0 11.57-5.18 11.57-11.57s-5.19-11.57-11.57-11.57zm-53.02 15.73s1.46 7.41-4.18 7.41h-5.64-95.258c-6.39 0-11.57-5.18-11.57-11.57s5.18-11.57 11.57-11.57h25.94c4.188-0.24 5.181-2.66 5.181-2.66l0.023 0.01 33.864-58.647-0.01-0.002c0.61-1.133 0.1-2.204 0.01-2.373l-11.18-19.369c-3.198-5.533-1.3-12.61 4.23-15.804 5.54-3.195 12.61-1.299 15.81 4.234l5.18 8.983 5.18-8.967c3.2-5.533 10.27-7.429 15.81-4.234 5.53 3.195 7.42 10.271 4.23 15.804l-47.12 81.615c-0.2 0.49-0.27 1.27 1.27 1.41h28.16l0.01 0.27s16.27 0.26 18.49 15.46z" fill="#fff"/>
 </g>
</svg>