<?xml version="1.0" encoding="UTF-8"?><svg xmlns="http://www.w3.org/2000/svg" xmlns:xlink="http://www.w3.org/1999/xlink" height="231.8" preserveAspectRatio="xMidYMid meet" version="1.1" viewBox="97.4 96.7 230.5 231.8" width="230.5" zoomAndPan="magnify">
 <g id="surface1">
  <g id="change1_1"><path d="m239.06 253.43c-2.08 0-4.04 0.51-5.82 1.41v-0.01l-0.04 0.03c-1.27 0.65-2.43 1.5-3.47 2.52-10.09 6.24-15.05-0.74-16.4-3.17v-41.69h-40.92s-11.39-4.75-3.95-16.8c1.02-1.03 1.87-2.2 2.52-3.47l0.03-0.04h-0.01c0.9-1.78 1.41-3.75 1.41-5.82 0-7.82-7.08-14.16-15.82-14.16-8.73 0-15.82 6.34-15.82 14.16 0 2.07 0.52 4.04 1.41 5.82l0.03 0.04c0.65 1.27 1.49 2.44 2.51 3.47 7.45 12.05-3.95 16.8-3.95 16.8h-40.915v113.46h113.48l-0.01-41.69c1.35-2.43 6.31-9.41 16.4-3.17 1.04 1.02 2.2 1.86 3.47 2.51l0.04 0.03c1.78 0.9 3.74 1.41 5.82 1.41 7.82 0 14.16-7.09 14.16-15.82 0-8.74-6.34-15.82-14.16-15.82" fill="#54afe5"/></g>
  <g id="change2_1"><path d="m239.06 253.43v-2.5c-2.49 0-4.85 0.62-6.95 1.68l1.13 2.23 2.34-0.88v-0.01c-0.28-0.74-0.9-1.31-1.66-1.52-0.77-0.22-1.59-0.06-2.22 0.43l-0.04 0.03 1.54 1.97-1.13-2.22c-1.52 0.76-2.89 1.77-4.09 2.96l1.75 1.78-1.32-2.13c-2.67 1.65-4.73 2.15-6.29 2.16-0.95-0.01-1.74-0.18-2.45-0.47-1.06-0.43-1.95-1.13-2.66-1.89-0.71-0.75-1.21-1.54-1.49-2.05l-2.19 1.21h2.5v-41.69c0-0.66-0.27-1.31-0.73-1.77-0.47-0.47-1.12-0.74-1.77-0.74h-40.92v2.51l0.96-2.31-0.39 0.93 0.41-0.93h-0.02l-0.39 0.93 0.41-0.93c-0.03 0-1.41-0.63-2.65-1.81-0.62-0.59-1.2-1.3-1.62-2.13-0.41-0.84-0.68-1.77-0.68-2.94 0-1.56 0.5-3.62 2.15-6.29l-2.13-1.32 1.78 1.76c1.19-1.21 2.2-2.59 2.96-4.09l-2.22-1.14 1.95 1.56 0.03-0.04c0.47-0.59 0.65-1.36 0.49-2.09-0.16-0.75-0.65-1.37-1.32-1.7l-0.01-0.01-1.12 2.24 2.23 1.13c1.06-2.1 1.68-4.46 1.68-6.95 0-4.68-2.13-8.91-5.46-11.87-3.34-2.99-7.88-4.79-12.86-4.79-4.97 0-9.52 1.8-12.85 4.79-3.33 2.96-5.47 7.19-5.47 11.87 0 2.49 0.62 4.85 1.68 6.95l2.23-1.13-1.01-2.29-0.01 0.01c-0.71 0.31-1.23 0.93-1.41 1.69-0.19 0.76-0.01 1.54 0.47 2.15l0.03 0.04 1.96-1.56-2.23 1.14c0.77 1.5 1.77 2.88 2.96 4.08l1.78-1.75-2.13 1.32c1.66 2.67 2.16 4.73 2.16 6.29 0 1.21-0.29 2.17-0.73 3.02-0.66 1.27-1.73 2.27-2.66 2.94-0.46 0.33-0.88 0.57-1.16 0.73-0.15 0.07-0.26 0.12-0.33 0.16l-0.07 0.03 0.54 1.26-0.53-1.26h-0.01l0.54 1.26-0.53-1.26 0.96 2.31v-2.51h-40.915c-0.66 0-1.3 0.27-1.769 0.74-0.465 0.46-0.731 1.11-0.731 1.77v113.46c0 0.66 0.266 1.31 0.735 1.77 0.465 0.47 1.109 0.73 1.765 0.73h113.48c0.64 0 1.29-0.26 1.76-0.73 0.46-0.46 0.73-1.11 0.73-1.77v-41.69h-2.5l2.19 1.21c0.37-0.68 1.15-1.86 2.26-2.79 0.55-0.46 1.18-0.87 1.89-1.15 0.71-0.29 1.5-0.47 2.45-0.47 1.56 0 3.62 0.5 6.29 2.16l1.32-2.13-1.75 1.78c1.2 1.19 2.58 2.19 4.09 2.96l1.13-2.23-1.6 1.93 0.04 0.03c0.63 0.52 1.46 0.7 2.24 0.49 0.78-0.2 1.42-0.78 1.7-1.54l-2.34-0.88-1.13 2.23c2.1 1.06 4.46 1.68 6.95 1.68 4.68 0 8.9-2.14 11.88-5.47s4.78-7.88 4.78-12.85c0-4.98-1.8-9.52-4.78-12.86-2.98-3.33-7.2-5.46-11.88-5.46v5c3.14 0 6 1.41 8.15 3.8 2.14 2.39 3.51 5.75 3.51 9.52 0 3.76-1.37 7.13-3.51 9.52-2.15 2.39-5.01 3.8-8.15 3.8-1.66 0-3.23-0.41-4.69-1.14-0.64-0.32-1.37-0.36-2.04-0.1-0.66 0.26-1.18 0.78-1.43 1.45v0.01l2.34 0.87 1.6-1.92-0.04-0.03c-0.14-0.12-0.3-0.22-0.46-0.3-1.04-0.53-2-1.23-2.86-2.07-0.13-0.13-0.28-0.25-0.44-0.35-3.26-2.02-6.25-2.9-8.92-2.9-1.6 0-3.06 0.32-4.33 0.84-1.9 0.77-3.35 1.95-4.43 3.09-1.07 1.16-1.79 2.28-2.22 3.06-0.2 0.37-0.31 0.79-0.31 1.21v39.19h-108.47v-108.47l38.41 0.01c0.34 0 0.66-0.07 0.96-0.2 0.16-0.07 2.01-0.84 3.97-2.62 0.98-0.9 1.98-2.06 2.75-3.54 0.78-1.48 1.3-3.29 1.3-5.33 0-2.67-0.88-5.67-2.9-8.92-0.1-0.16-0.22-0.31-0.35-0.44-0.84-0.86-1.54-1.82-2.07-2.86-0.08-0.16-0.16-0.28-0.27-0.42l-0.03-0.04-1.95 1.56 1.01 2.29 0.01-0.01c0.62-0.28 1.11-0.8 1.34-1.44 0.23-0.65 0.18-1.36-0.13-1.97-0.73-1.46-1.14-3.03-1.14-4.69 0-3.14 1.41-6 3.8-8.15 2.39-2.14 5.76-3.51 9.52-3.51 3.77 0 7.13 1.37 9.52 3.51 2.39 2.15 3.8 5.01 3.8 8.15 0 1.66-0.41 3.23-1.14 4.69-0.3 0.6-0.35 1.28-0.14 1.91 0.21 0.64 0.66 1.15 1.25 1.45l0.01 0.01 1.12-2.24-1.95-1.56-0.04 0.04c-0.11 0.14-0.19 0.26-0.27 0.42-0.53 1.04-1.22 2-2.07 2.85-0.13 0.13-0.25 0.29-0.34 0.45-2.02 3.25-2.91 6.25-2.9 8.92-0.01 2.04 0.52 3.85 1.29 5.33 1.16 2.22 2.83 3.72 4.18 4.69s2.42 1.42 2.54 1.47c0.31 0.13 0.63 0.2 0.96 0.2h38.42v39.19c0 0.42 0.11 0.84 0.31 1.21 0.58 1.03 1.65 2.7 3.43 4.19 0.88 0.75 1.96 1.45 3.22 1.96 1.27 0.52 2.73 0.84 4.33 0.84 2.67 0 5.66-0.89 8.92-2.91 0.16-0.09 0.31-0.21 0.44-0.34 0.86-0.85 1.82-1.55 2.86-2.07 0.12-0.07 0.28-0.16 0.4-0.25l0.04-0.04-1.54-1.97-2.34 0.88v0.01c0.25 0.67 0.77 1.19 1.43 1.45 0.67 0.26 1.4 0.22 2.04-0.1 1.46-0.73 3.03-1.14 4.69-1.14v-2.5" fill="#040505"/></g>
  <g id="change3_1"><path d="m211.87 99.289v41.691c-1.35 2.43-6.31 9.41-16.4 3.18-1.03-1.02-2.2-1.87-3.47-2.52l-0.04-0.03v0.01c-1.78-0.9-3.75-1.42-5.82-1.42-7.82 0-14.16 7.09-14.16 15.82 0 8.75 6.34 15.82 14.16 15.82 2.07 0 4.04-0.51 5.82-1.4l0.04-0.03c1.27-0.64 2.44-1.5 3.47-2.52 10.09-6.23 15.05 0.74 16.4 3.18v41.69h40.92s11.4 4.74 3.95 16.79c-1.02 1.04-1.87 2.2-2.52 3.47l-0.03 0.04 0.01 0.01c-0.9 1.77-1.41 3.74-1.41 5.82 0 7.81 7.08 14.15 15.82 14.15s15.82-6.34 15.82-14.15c0-2.08-0.52-4.05-1.41-5.82v-0.01l-0.03-0.04c-0.64-1.27-1.49-2.43-2.51-3.47-7.45-12.05 3.95-16.79 3.95-16.79h40.91v-113.47l-113.47-0.001" fill="#f1487a"/></g>
  <g id="change2_2"><path d="m211.87 99.289h-2.5v41.691h2.5l-2.19-1.21c-0.37 0.68-1.15 1.87-2.26 2.79-0.55 0.46-1.18 0.87-1.89 1.15-0.71 0.29-1.5 0.47-2.45 0.47-1.56 0-3.62-0.5-6.29-2.15l-1.32 2.13 1.76-1.78c-1.21-1.2-2.59-2.2-4.09-2.97l-1.14 2.23 1.6-1.93-0.04-0.03c-0.65-0.53-1.52-0.71-2.32-0.47-0.8 0.25-1.43 0.88-1.67 1.68l-0.01 0.01 2.4 0.72 1.13-2.23c-2.1-1.07-4.47-1.69-6.95-1.69-4.68 0-8.91 2.14-11.87 5.47-2.98 3.34-4.79 7.88-4.79 12.85 0 4.98 1.81 9.53 4.79 12.86 2.96 3.33 7.19 5.47 11.87 5.46 2.48 0 4.85-0.61 6.95-1.67l-1.13-2.23-2.24 1.11 0.01 0.01c0.33 0.67 0.95 1.15 1.68 1.32s1.5 0 2.09-0.47l0.04-0.03-1.54-1.97 1.14 2.23c1.5-0.77 2.88-1.78 4.08-2.96l-1.75-1.79 1.32 2.13c2.67-1.65 4.73-2.15 6.3-2.15 0.94 0 1.73 0.18 2.44 0.46 1.06 0.43 1.95 1.13 2.66 1.89 0.7 0.75 1.21 1.55 1.49 2.06l2.19-1.21h-2.5v41.69c0 0.66 0.27 1.3 0.74 1.77 0.46 0.47 1.1 0.73 1.76 0.73h40.92v-2.5l-0.96 2.31 0.39-0.95-0.4 0.94 0.01 0.01 0.39-0.95-0.4 0.94c0.02 0.01 1.4 0.63 2.64 1.82 0.62 0.58 1.2 1.3 1.62 2.13 0.41 0.83 0.68 1.77 0.69 2.93-0.01 1.57-0.51 3.62-2.16 6.3l2.13 1.31-1.78-1.75c-1.19 1.21-2.2 2.58-2.96 4.09l2.22 1.13-1.92-1.59-0.04 0.04c-0.48 0.59-0.67 1.37-0.51 2.11 0.15 0.74 0.64 1.38 1.32 1.72h0.01l1.12-2.23-2.23-1.13c-1.06 2.1-1.68 4.45-1.68 6.95 0 4.68 2.14 8.9 5.46 11.87 3.34 2.98 7.88 4.78 12.86 4.78s9.52-1.8 12.85-4.78c3.33-2.97 5.47-7.19 5.47-11.87 0-2.5-0.62-4.85-1.68-6.95l-2.23 1.13 1.01 2.28h0.01c0.71-0.32 1.23-0.94 1.41-1.7 0.19-0.75 0.01-1.54-0.47-2.15l-0.03-0.04-1.96 1.56 2.23-1.13c-0.77-1.51-1.77-2.88-2.96-4.09l-1.78 1.75 2.13-1.31c-1.66-2.68-2.16-4.73-2.16-6.3 0-1.2 0.29-2.16 0.73-3.01 0.66-1.27 1.73-2.28 2.66-2.94 0.46-0.33 0.87-0.58 1.16-0.73 0.15-0.08 0.26-0.13 0.33-0.16l0.06-0.03 0.01-0.01-0.54-1.25 0.53 1.26 0.01-0.01-0.54-1.25 0.53 1.26-0.96-2.31v2.5h40.91c0.66 0 1.31-0.26 1.77-0.73 0.47-0.47 0.73-1.11 0.73-1.77v-113.47c0-0.661-0.26-1.302-0.73-1.77-0.46-0.465-1.11-0.731-1.77-0.731h-113.47c-0.66 0-1.3 0.266-1.76 0.731-0.47 0.468-0.74 1.109-0.74 1.769h2.5v2.501h110.97v108.47h-38.41c-0.33 0-0.65 0.06-0.96 0.19-0.17 0.08-2.01 0.84-3.97 2.62-0.97 0.9-1.98 2.06-2.75 3.54-0.78 1.48-1.3 3.29-1.3 5.33 0 2.67 0.88 5.67 2.9 8.93 0.1 0.15 0.22 0.31 0.35 0.43 0.84 0.87 1.54 1.83 2.07 2.86 0.08 0.16 0.16 0.29 0.27 0.43l0.03 0.03 1.95-1.56-1.01-2.28h-0.01c-0.62 0.28-1.11 0.8-1.34 1.45s-0.18 1.35 0.13 1.97c0.73 1.45 1.14 3.02 1.14 4.69 0 3.14-1.41 5.99-3.8 8.15-2.4 2.14-5.76 3.5-9.52 3.5s-7.13-1.36-9.52-3.5c-2.39-2.16-3.8-5.01-3.8-8.15 0-1.67 0.41-3.24 1.14-4.69 0.3-0.6 0.35-1.29 0.14-1.92s-0.66-1.15-1.25-1.45l-0.01-0.01-1.12 2.24 1.93 1.59 0.03-0.04c0.12-0.13 0.22-0.29 0.3-0.45 0.53-1.04 1.23-2 2.07-2.85 0.12-0.13 0.25-0.29 0.34-0.44 2.02-3.26 2.91-6.26 2.91-8.93 0-2.04-0.53-3.85-1.3-5.33-1.17-2.22-2.83-3.72-4.18-4.68-1.35-0.97-2.42-1.42-2.54-1.48-0.31-0.13-0.63-0.19-0.96-0.19h-38.42v-39.19c0-0.43-0.1-0.84-0.31-1.21-0.58-1.04-1.65-2.71-3.42-4.2-0.89-0.75-1.96-1.45-3.23-1.96-1.27-0.52-2.73-0.83-4.32-0.83-2.68 0-5.67 0.88-8.93 2.9-0.16 0.09-0.31 0.21-0.44 0.34-0.86 0.85-1.82 1.55-2.85 2.07-0.14 0.07-0.29 0.17-0.41 0.26l-0.04 0.03 1.54 1.97 2.24-1.12c-0.31-0.6-0.82-1.05-1.46-1.26-0.63-0.21-1.31-0.16-1.91 0.14-1.46 0.74-3.03 1.14-4.69 1.14-3.14 0-6-1.4-8.15-3.8-2.14-2.39-3.51-5.75-3.51-9.52 0-3.75 1.37-7.12 3.51-9.51 2.15-2.4 5.01-3.8 8.15-3.81 1.66 0.01 3.23 0.41 4.69 1.15 0.66 0.33 1.43 0.36 2.11 0.06 0.68-0.29 1.2-0.86 1.41-1.57l0.01-0.02-2.4-0.71-1.6 1.92 0.05 0.04c0.13 0.11 0.29 0.22 0.46 0.3 1.03 0.52 1.99 1.22 2.85 2.07 0.13 0.12 0.28 0.25 0.44 0.34 3.26 2.02 6.25 2.9 8.92 2.9 1.6 0 3.06-0.32 4.33-0.83 1.9-0.77 3.35-1.96 4.43-3.1 1.07-1.15 1.79-2.28 2.22-3.05 0.21-0.38 0.31-0.79 0.31-1.22v-41.691h-2.5v2.501-2.501" fill="#040505"/></g>
  <g id="change4_1"><path d="m284.49 212.69s-11.38 4.73-3.94 16.76c1.01 1.03 1.86 2.2 2.51 3.47l0.03 0.04h-0.01c0.9 1.77 1.41 3.74 1.41 5.81 0 7.81-7.07 14.14-15.79 14.14-8.73 0-15.8-6.33-15.8-14.14 0-2.07 0.51-4.04 1.41-5.81h-0.01l0.03-0.04c0.65-1.27 1.5-2.44 2.51-3.47 7.44-12.03-3.94-16.76-3.94-16.76h-40.85v40.85s4.73 11.38 16.76 3.94c1.04-1.01 2.2-1.86 3.47-2.5l0.04-0.04v0.01c1.77-0.9 3.74-1.41 5.81-1.41 7.81 0 14.14 7.07 14.14 15.8 0 8.72-6.33 15.79-14.14 15.79-2.07 0-4.04-0.51-5.81-1.41v0.01l-0.04-0.03c-1.27-0.65-2.44-1.5-3.47-2.51-12.03-7.44-16.76 3.94-16.76 3.94v40.85h113.29v-113.29h-40.85" fill="#7ecd50"/></g>
  <g id="change2_3"><path d="m284.49 212.69l-0.96-2.31c-0.16 0.07-2.01 0.84-3.96 2.62-0.98 0.89-1.98 2.05-2.75 3.53s-1.3 3.29-1.29 5.32c-0.01 2.67 0.88 5.66 2.89 8.92 0.1 0.15 0.22 0.3 0.35 0.44 0.84 0.86 1.54 1.81 2.06 2.84 0.07 0.13 0.17 0.3 0.26 0.41l0.03 0.04 1.97-1.54-0.54-2.44h-0.01c-0.75 0.17-1.39 0.68-1.72 1.37-0.33 0.7-0.32 1.51 0.03 2.2 0.74 1.45 1.14 3.02 1.14 4.68 0 3.14-1.4 5.99-3.79 8.13s-5.75 3.51-9.5 3.51c-3.76 0-7.12-1.37-9.5-3.51-2.4-2.14-3.8-4.99-3.8-8.13 0-1.66 0.41-3.23 1.14-4.68 0.35-0.69 0.36-1.5 0.03-2.2-0.33-0.69-0.97-1.2-1.72-1.37h-0.01l-0.54 2.44 1.99 1.51 0.03-0.04c0.09-0.11 0.17-0.25 0.24-0.38 0.53-1.03 1.22-1.98 2.07-2.84 0.12-0.14 0.25-0.29 0.34-0.44 2.01-3.26 2.9-6.25 2.9-8.92 0-2.03-0.52-3.84-1.3-5.32-1.16-2.22-2.82-3.71-4.17-4.68s-2.42-1.42-2.54-1.47c-0.31-0.13-0.63-0.19-0.96-0.19h-40.85c-0.66 0-1.3 0.26-1.77 0.73s-0.73 1.11-0.73 1.77v40.85c0 0.34 0.06 0.66 0.19 0.96 0.07 0.16 0.83 2.01 2.62 3.96 0.89 0.98 2.05 1.98 3.53 2.75s3.29 1.3 5.32 1.3c2.67 0 5.66-0.89 8.91-2.9 0.16-0.09 0.31-0.22 0.44-0.34 0.87-0.85 1.82-1.54 2.85-2.07 0.16-0.08 0.32-0.18 0.46-0.3l0.04-0.03-1.59-1.93-2.34 0.88v0.01c0.25 0.67 0.77 1.19 1.43 1.45 0.67 0.26 1.4 0.22 2.04-0.1 1.45-0.73 3.02-1.14 4.68-1.14 3.14 0 5.98 1.41 8.13 3.8 2.14 2.38 3.51 5.74 3.51 9.5 0 3.75-1.37 7.11-3.51 9.5-2.15 2.39-4.99 3.79-8.13 3.79-1.66 0-3.23-0.4-4.68-1.14-0.66-0.33-1.43-0.36-2.12-0.06-0.68 0.29-1.19 0.86-1.4 1.57l-0.01 0.02 2.4 0.71 1.59-1.92-0.04-0.04c-0.14-0.11-0.3-0.22-0.46-0.3-1.03-0.52-1.98-1.22-2.84-2.06-0.13-0.13-0.29-0.25-0.45-0.35-3.25-2.01-6.24-2.9-8.91-2.9-2.03 0-3.84 0.53-5.32 1.3-2.22 1.16-3.71 2.83-4.68 4.17-0.97 1.35-1.42 2.42-1.47 2.54-0.13 0.31-0.19 0.63-0.19 0.96v40.85c0 0.66 0.26 1.31 0.73 1.77 0.47 0.47 1.11 0.73 1.77 0.73h113.29c0.66 0 1.31-0.26 1.77-0.73 0.47-0.46 0.73-1.11 0.73-1.77v-113.29c0-0.66-0.26-1.3-0.73-1.77-0.46-0.47-1.11-0.73-1.77-0.73h-40.85c-0.33 0-0.65 0.06-0.96 0.19l0.96 2.31v2.5h38.35v108.29h-108.29v-38.35h-2.5l2.31 0.96-0.95-0.39 0.94 0.41 0.01-0.02-0.95-0.39 0.94 0.41c0.01-0.03 0.63-1.41 1.81-2.64 0.58-0.62 1.3-1.2 2.13-1.62 0.82-0.41 1.76-0.68 2.92-0.69 1.57 0.01 3.62 0.51 6.29 2.15l1.31-2.12-1.75 1.78c1.21 1.19 2.58 2.19 4.08 2.96l1.14-2.23-1.6 1.92 0.04 0.04c0.64 0.53 1.52 0.71 2.32 0.46 0.8-0.24 1.43-0.87 1.67-1.67v-0.01l-2.39-0.72-1.13 2.23c2.1 1.06 4.45 1.68 6.94 1.68 4.67 0.01 8.89-2.13 11.86-5.46s4.77-7.87 4.78-12.83c-0.01-4.97-1.81-9.51-4.78-12.84-2.97-3.32-7.19-5.46-11.86-5.46-2.49 0-4.84 0.62-6.94 1.68l1.13 2.23 2.34-0.88v-0.01c-0.29-0.76-0.92-1.33-1.7-1.54-0.78-0.2-1.62-0.02-2.24 0.5l-0.04 0.03 1.6 1.93-1.14-2.23c-1.5 0.77-2.87 1.77-4.08 2.95l1.75 1.78-1.31-2.12c-2.68 1.64-4.73 2.14-6.29 2.15-1.2-0.01-2.16-0.29-3.01-0.73-1.26-0.66-2.27-1.72-2.93-2.65-0.33-0.46-0.57-0.88-0.72-1.17-0.08-0.14-0.14-0.25-0.17-0.32l-0.03-0.07-1.29 0.55 1.3-0.54-0.01-0.01-1.29 0.55 1.3-0.54-2.31 0.96h2.5v-38.35h38.35v-2.5l-0.96 2.31 0.4-0.96-0.41 0.95 0.01 0.01 0.4-0.96-0.41 0.95c0.02 0.01 1.4 0.63 2.63 1.81 0.62 0.58 1.21 1.3 1.62 2.13 0.41 0.82 0.68 1.76 0.69 2.92-0.01 1.56-0.51 3.62-2.15 6.29l2.12 1.31-1.78-1.75c-1.18 1.21-2.19 2.58-2.95 4.08l2.22 1.14-1.99-1.52-0.03 0.05c-0.51 0.67-0.65 1.57-0.36 2.37 0.3 0.8 0.98 1.39 1.81 1.58h0.01l0.54-2.44-2.23-1.13c-1.06 2.1-1.68 4.46-1.68 6.94 0 4.68 2.13 8.89 5.46 11.86 3.33 2.98 7.87 4.78 12.84 4.78 4.96 0 9.5-1.8 12.83-4.78 3.33-2.97 5.46-7.18 5.46-11.86 0-2.48-0.61-4.84-1.68-6.94l-2.23 1.13 0.54 2.44h0.01c0.84-0.19 1.53-0.79 1.82-1.6 0.28-0.81 0.14-1.71-0.39-2.39l-0.04-0.04-1.96 1.55 2.23-1.14c-0.77-1.5-1.77-2.87-2.96-4.08l-1.78 1.75 2.13-1.31c-1.65-2.67-2.15-4.73-2.15-6.29 0-1.2 0.28-2.15 0.72-3.01 0.66-1.26 1.72-2.27 2.65-2.93 0.46-0.33 0.88-0.57 1.17-0.72 0.14-0.08 0.25-0.14 0.32-0.17l0.07-0.03-0.53-1.26 0.52 1.27 0.01-0.01-0.53-1.26 0.52 1.27-0.96-2.31v2.5-2.5" fill="#040505"/></g>
  <g id="change5_1"><path d="m140.8 212.52s11.38-4.74 3.94-16.77c-1.01-1.04-1.86-2.2-2.51-3.47l-0.03-0.04h0.01c-0.9-1.78-1.41-3.74-1.41-5.81 0-7.81 7.07-14.13 15.79-14.13 8.73 0 15.8 6.32 15.8 14.13 0 2.07-0.51 4.03-1.41 5.81l-0.03 0.04c-0.64 1.27-1.49 2.43-2.5 3.47-7.44 12.03 3.94 16.77 3.94 16.77h40.85v-40.86s-4.73-11.38-16.76-3.95c-1.04 1.02-2.2 1.87-3.47 2.52l-0.04 0.03v-0.01c-1.78 0.89-3.74 1.41-5.81 1.41-7.81 0-14.14-7.07-14.14-15.8 0-8.72 6.33-15.79 14.14-15.79 2.07 0 4.03 0.51 5.81 1.41v-0.01l0.04 0.03c1.27 0.64 2.43 1.5 3.47 2.51 12.03 7.44 16.76-3.94 16.76-3.94v-40.855h-113.3l0.001 113.3h40.859" fill="#fbcb41"/></g>
  <g id="change2_4"><path d="m140.8 212.52l0.96 2.3c0.16-0.07 2.01-0.84 3.96-2.62 0.97-0.89 1.98-2.05 2.75-3.53s1.3-3.29 1.29-5.32c0.01-2.67-0.88-5.66-2.89-8.92-0.1-0.15-0.22-0.31-0.35-0.43-0.84-0.87-1.54-1.82-2.06-2.85-0.07-0.13-0.17-0.29-0.26-0.41l-0.04-0.04-1.96 1.54 0.54 2.44h0.01c0.75-0.16 1.39-0.68 1.71-1.37 0.33-0.7 0.33-1.51-0.02-2.2-0.74-1.45-1.14-3.02-1.14-4.68 0-3.14 1.4-5.98 3.79-8.13 2.39-2.14 5.75-3.51 9.5-3.5 3.76-0.01 7.12 1.36 9.5 3.5 2.39 2.15 3.8 4.99 3.8 8.13 0 1.66-0.41 3.23-1.14 4.68-0.35 0.69-0.36 1.5-0.03 2.2 0.33 0.69 0.97 1.21 1.71 1.37h0.02l0.53-2.44-1.98-1.51-0.04 0.04c-0.08 0.12-0.16 0.25-0.23 0.37-0.53 1.04-1.22 1.99-2.07 2.86-0.13 0.12-0.25 0.28-0.34 0.43-2.02 3.26-2.9 6.25-2.9 8.92 0 2.03 0.52 3.84 1.29 5.32 1.17 2.22 2.83 3.72 4.18 4.68 1.35 0.97 2.41 1.42 2.54 1.47 0.3 0.13 0.62 0.2 0.96 0.2h40.85c0.66 0 1.3-0.27 1.77-0.74 0.46-0.46 0.73-1.11 0.73-1.76v-40.86c0-0.33-0.06-0.65-0.19-0.96-0.07-0.16-0.84-2.01-2.62-3.96-0.89-0.98-2.05-1.98-3.54-2.75-1.47-0.78-3.28-1.3-5.32-1.29-2.66-0.01-5.66 0.87-8.91 2.89-0.15 0.09-0.31 0.21-0.44 0.34-0.86 0.85-1.81 1.54-2.85 2.07-0.13 0.07-0.28 0.16-0.4 0.26l-0.04 0.03 1.54 1.97 2.34-0.88v-0.01c-0.25-0.67-0.77-1.19-1.43-1.45-0.67-0.26-1.4-0.22-2.04 0.1-1.46 0.73-3.02 1.14-4.68 1.14-3.14 0-5.99-1.4-8.14-3.79-2.13-2.39-3.5-5.75-3.5-9.51 0-3.75 1.37-7.11 3.5-9.5 2.15-2.39 5-3.79 8.14-3.79 1.66 0 3.23 0.4 4.68 1.14 0.64 0.32 1.37 0.36 2.04 0.09 0.66-0.25 1.18-0.78 1.43-1.44v-0.01l-2.34-0.88-1.59 1.92 0.03 0.04c0.14 0.11 0.3 0.22 0.47 0.3 1.03 0.52 1.98 1.22 2.84 2.06 0.13 0.13 0.29 0.25 0.44 0.35 3.26 2.01 6.25 2.9 8.91 2.89 2.04 0.01 3.85-0.52 5.32-1.29 2.23-1.17 3.72-2.83 4.69-4.17 0.97-1.35 1.42-2.42 1.47-2.54 0.13-0.31 0.19-0.63 0.19-0.96v-40.855c0-0.66-0.27-1.305-0.73-1.77-0.47-0.465-1.11-0.73-1.77-0.73h-113.3c-0.655 0-1.299 0.265-1.764 0.73s-0.735 1.11-0.735 1.77v113.3c0 0.65 0.27 1.3 0.735 1.76 0.465 0.47 1.109 0.74 1.765 0.74h40.859c0.33 0 0.65-0.07 0.96-0.2l-0.96-2.3v-2.51h-38.36v-108.3h108.3v38.36h2.5l-2.31-0.96 0.96 0.39-0.95-0.41-0.01 0.02 0.96 0.39-0.95-0.41c-0.01 0.03-0.63 1.41-1.81 2.64-0.58 0.62-1.3 1.2-2.13 1.62-0.83 0.41-1.76 0.68-2.93 0.68-1.56 0-3.61-0.5-6.28-2.14l-1.31 2.12 1.75-1.78c-1.21-1.19-2.58-2.19-4.09-2.96l-1.13 2.23 1.6-1.92-0.04-0.04c-0.63-0.51-1.46-0.7-2.24-0.49s-1.42 0.78-1.7 1.54v0.01l2.34 0.88 1.12-2.23c-2.09-1.06-4.45-1.68-6.93-1.68-4.68 0-8.89 2.13-11.86 5.46-2.98 3.33-4.78 7.86-4.78 12.83s1.8 9.51 4.78 12.84c2.97 3.33 7.18 5.46 11.86 5.46 2.48 0 4.84-0.62 6.93-1.68l-1.12-2.23-2.34 0.88v0.01c0.28 0.74 0.9 1.31 1.66 1.52 0.77 0.22 1.59 0.06 2.22-0.43l0.04-0.03-1.54-1.97 1.14 2.22c1.5-0.77 2.87-1.76 4.08-2.95l-1.75-1.79 1.31 2.13c2.67-1.64 4.72-2.14 6.28-2.14 1.2 0 2.16 0.28 3.01 0.72 1.27 0.65 2.28 1.72 2.94 2.65 0.33 0.46 0.57 0.88 0.72 1.17 0.08 0.14 0.13 0.25 0.17 0.32l0.03 0.07 1.27-0.54-1.28 0.53 0.01 0.01 1.27-0.54-1.28 0.53 2.31-0.96h-2.5v38.35h-38.35v2.51l0.96-2.31-0.4 0.95 0.41-0.95h-0.01l-0.4 0.95 0.41-0.95c-0.02 0-1.4-0.63-2.64-1.81-0.61-0.58-1.2-1.3-1.61-2.12-0.42-0.83-0.68-1.77-0.69-2.93 0-1.56 0.5-3.62 2.15-6.29l-2.12-1.31 1.78 1.75c1.18-1.21 2.18-2.58 2.95-4.08l-2.23-1.14 2 1.52 0.03-0.04c0.51-0.68 0.65-1.58 0.36-2.38-0.3-0.8-0.98-1.4-1.81-1.58h-0.01l-0.54 2.44 2.23 1.13c1.06-2.1 1.68-4.46 1.68-6.94 0-4.68-2.14-8.89-5.46-11.86-3.33-2.98-7.87-4.77-12.84-4.77s-9.5 1.79-12.83 4.77c-3.33 2.97-5.47 7.18-5.46 11.86 0 2.48 0.61 4.84 1.68 6.94l2.23-1.13-0.55-2.44c-0.84 0.19-1.53 0.79-1.82 1.6s-0.14 1.71 0.39 2.39l0.04 0.04 1.96-1.55-2.23 1.14c0.77 1.5 1.77 2.87 2.96 4.08l1.78-1.75-2.13 1.31c1.65 2.67 2.15 4.73 2.15 6.29 0 1.2-0.29 2.16-0.72 3.01-0.66 1.26-1.73 2.27-2.65 2.93-0.46 0.33-0.88 0.57-1.17 0.73-0.15 0.07-0.26 0.12-0.32 0.16l-0.07 0.03h-0.01l0.55 1.27-0.53-1.27h-0.02l0.55 1.27-0.53-1.27 0.96 2.31v-2.51 2.51" fill="#040505"/></g>
 </g>
</svg>