<?xml version="1.0" encoding="UTF-8"?><svg xmlns="http://www.w3.org/2000/svg" xmlns:xlink="http://www.w3.org/1999/xlink" height="512.0" preserveAspectRatio="xMidYMid meet" version="1.0" viewBox="0.0 0.0 512.0 512.0" width="512.0" zoomAndPan="magnify">
 <g id="change1_1"><rect fill="inherit" height="512" rx="15%" width="512"/></g>
 <g id="change2_1"><path d="m370 308a5820 5819 0 0 0 78 -40c9-5 18-16 0-25-6-2-38-19-79-40l-56 52z" fill="#ffe300"/></g>
 <g id="change3_1"><path d="m314 255l-179 170c4 0.5 9-0.5 14.5-3.4l220.9-113.2z" fill="#ff4e54"/></g>
 <g id="change4_1"><path d="m313.9 255.2l55.1-52.2-219.7-113a21.8 21.8 0 0 0 -14.5 -2z" fill="#00f085"/></g>
 <g id="change5_1"><path d="m314 255l-179-167c-7.4 1.5-13.5 7.6-13.4 19.6v297.4c0 11.3 4.7 19.3 13.6 20.1z" fill="#00e0ff"/></g>
</svg>