<?xml version="1.0" encoding="UTF-8"?><svg xmlns="http://www.w3.org/2000/svg" xmlns:xlink="http://www.w3.org/1999/xlink" height="32.1" preserveAspectRatio="xMidYMid meet" version="1.0" viewBox="2.5 -0.1 26.9 32.1" width="26.9" zoomAndPan="magnify">
 <g fill="#a4c639" id="change1_1">
  <path d="m10.45 0.234l1.44 2.57c-2.675 1.336-4.525 3.896-4.525 6.888h17.27c0-2.98-1.85-5.55-4.523-6.888l1.44-2.57s0.103-0.103-0.103-0.206c-0.103-0.103-0.206 0.103-0.206 0.103l-1.543 2.571a9.35 9.35 0 0 0 -3.804 -0.822 9.35 9.35 0 0 0 -3.804 0.822l-1.54-2.57s-0.102-0.102-0.206-0.102a0.36 0.36 0 0 0 0.103 0.206zm1.45 5.036c0.4 0 0.822 0.4 0.822 0.822s-0.4 0.822-0.822 0.822a0.81 0.81 0 0 1 -0.822 -0.822 0.81 0.81 0 0 1 0.822 -0.822zm8.224 0c0.4 0 0.822 0.4 0.822 0.822s-0.4 0.822-0.822 0.822a0.81 0.81 0 0 1 -0.822 -0.822 0.81 0.81 0 0 1 0.822 -0.822zm-12.862 5.45v13.16c0 0.617 0.822 1.542 1.44 1.542h2.056v4.523c0 1.13 0.822 2.056 1.85 2.056s1.85-0.925 1.85-2.056v-4.525h2.98v4.523c0 1.13 0.822 2.056 1.85 2.056s1.85-0.925 1.85-2.056v-4.523h2.056c0.617 0 1.44-0.822 1.44-1.542v-13.158z" fill="inherit"/>
  <use xlink:actuate="onLoad" xlink:href="#A" xlink:show="embed" xlink:type="simple" xmlns:xlink="http://www.w3.org/1999/xlink"/>
  <use x="23.234" xlink:actuate="onLoad" xlink:href="#A" xlink:show="embed" xlink:type="simple" xmlns:xlink="http://www.w3.org/1999/xlink"/>
 </g>
 <defs>
  <path d="m4.383 10.412c1.028 0 1.85 0.925 1.85 2.056v7.813c0 1.13-0.822 2.056-1.85 2.056s-1.85-0.925-1.85-2.056v-7.813c0-1.13 0.822-2.056 1.85-2.056z" id="A"/>
 </defs>
</svg>